<svg width="120" height="120" viewBox="0 0 120 120" fill="none" xmlns="http://www.w3.org/2000/svg"  xmlns:xlink="http://www.w3.org/1999/xlink">
<path d="M82.5724 33.0228C85.0017 30.516 86.5201 26.9648 86.5201 23.1003C86.5201 15.2668 80.4468 9 72.8552 9C68.0977 9 63.8464 11.5067 61.4171 15.3713C60.8098 15.9979 6.45375 85.1417 5.94764 85.9772C3.51832 88.484 2 92.0352 2 95.8997C2 103.733 8.0733 110 15.6649 110C20.4223 110 24.6736 107.493 27.103 103.629C27.7103 103.002 82.0663 33.8583 82.5724 33.0228Z" fill="#00CC99"/>
<path d="M114.052 65.819C116.482 63.3123 118 59.7611 118 55.8966C118 48.0631 111.927 41.7963 104.335 41.7963C99.5777 41.7963 95.3264 44.303 92.897 48.1675C92.2897 48.7942 63.7452 85.1417 63.2391 85.9772C60.8098 88.484 59.2915 92.0351 59.2915 95.8997C59.2915 103.733 65.3647 110 72.9564 110C77.7138 110 81.9651 107.493 84.3944 103.629C85.0017 103.002 113.546 66.6546 114.052 65.819Z" fill="#444444"/>
</svg>
