<svg width="350" height="60" fill="none" xmlns="http://www.w3.org/2000/svg"><path d="M48.021 14.27c1.448-1.488 2.353-3.598 2.353-5.894 0-4.653-3.62-8.376-8.145-8.376-2.835 0-5.369 1.49-6.816 3.785-.362.372-32.759 41.448-33.06 41.944C.905 47.22 0 49.328 0 51.624 0 56.277 3.62 60 8.144 60c2.836 0 5.37-1.49 6.817-3.785.362-.372 32.758-41.448 33.06-41.944z" fill="#0C9"/><path d="M66.783 33.754c1.448-1.49 2.353-3.599 2.353-5.895 0-4.653-3.62-8.376-8.144-8.376-2.836 0-5.37 1.49-6.817 3.785-.362.372-17.375 21.965-17.677 22.461-1.447 1.49-2.352 3.599-2.352 5.895 0 4.653 3.62 8.376 8.144 8.376 2.835 0 5.37-1.49 6.817-3.785.362-.372 17.374-21.965 17.676-22.461zm65.353-22.568c4.206 0 7.691 1.514 10.457 4.543 2.794 2.971 4.191 6.657 4.191 11.057 0 4.371-1.397 8.071-4.191 11.1-2.766 3-6.251 4.5-10.457 4.5-3.774 0-6.957-1.2-9.55-3.6-2.563-2.457-4.191-5.557-4.882-9.3h-4.364v12.3h-6.309v-30h6.309v12.086h4.407c.605-3.658 2.232-6.686 4.883-9.086 2.65-2.4 5.819-3.6 9.506-3.6zm0 25.414c2.448 0 4.45-.886 6.006-2.657 1.556-1.8 2.333-4.186 2.333-7.157 0-2.972-.777-5.343-2.333-7.114-1.556-1.8-3.558-2.7-6.006-2.7-2.42 0-4.408.9-5.963 2.7-1.556 1.77-2.333 4.142-2.333 7.114 0 2.943.777 5.314 2.333 7.114 1.555 1.8 3.543 2.7 5.963 2.7zm26.479 5.186h-6.222v-30h21.821v5.528h-15.599v24.472zm29.302-9.172h-13.351v-5.442h13.351v5.442zm13.697 9.172h-6.222v-30h25.321v30h-6.179V17.314h-12.92v24.472zm36.003.557c-3.37 0-6.208-1.029-8.512-3.086-2.305-2.057-3.457-4.785-3.457-8.185 0-3.172 1.037-5.83 3.111-7.972 2.074-2.171 4.782-3.257 8.123-3.257 3.111 0 5.603 1.1 7.476 3.3 1.872 2.2 2.808 4.871 2.808 8.014v1.586h-15.469c.317 1.428 1.109 2.529 2.377 3.3 1.296.771 2.909 1.157 4.839 1.157 2.391 0 4.696-.629 6.914-1.886v4.843c-1.93 1.457-4.667 2.186-8.21 2.186zm-5.92-13.457h9.463c-.058-1.229-.504-2.243-1.339-3.043-.807-.829-1.873-1.243-3.198-1.243-1.354 0-2.477.4-3.37 1.2-.893.771-1.412 1.8-1.556 3.086zm35.443-3.429h-6.655l-.086 3c-.144 3.172-.475 5.672-.994 7.5-.547 1.914-1.411 3.386-2.592 4.414-1.153 1-2.752 1.53-4.797 1.586-1.066 0-1.829-.128-2.29-.386v-4.928c.317.114.735.171 1.253.171 1.412 0 2.348-.914 2.809-2.742.432-1.63.662-4.086.691-7.372l.13-6.3h18.623v21.386h-6.092V25.457zm27.343 0h-6.654l-.086 3c-.144 3.172-.476 5.672-.994 7.5-.547 1.914-1.412 3.386-2.593 4.414-1.152 1-2.751 1.53-4.796 1.586-1.066 0-1.829-.128-2.29-.386v-4.928c.317.114.734.171 1.253.171 1.411 0 2.348-.914 2.809-2.742.432-1.63.662-4.086.691-7.372l.13-6.3h18.623v21.386h-6.093V25.457zm22.591 16.886c-3.37 0-6.208-1.029-8.512-3.086-2.305-2.057-3.457-4.785-3.457-8.185 0-3.172 1.037-5.83 3.111-7.972 2.074-2.171 4.782-3.257 8.124-3.257 3.111 0 5.602 1.1 7.475 3.3 1.872 2.2 2.808 4.871 2.808 8.014v1.586h-15.469c.317 1.428 1.109 2.529 2.377 3.3 1.296.771 2.909 1.157 4.839 1.157 2.391 0 4.696-.629 6.914-1.886v4.843c-1.93 1.457-4.667 2.186-8.21 2.186zm-5.92-13.457h9.463c-.057-1.229-.504-2.243-1.339-3.043-.807-.829-1.873-1.243-3.198-1.243-1.354 0-2.477.4-3.37 1.2-.893.771-1.412 1.8-1.556 3.086zm30.647 12.9h-6.093V25.457h-6.741V20.4h19.661v5.057h-6.827v16.329z" fill="#444"/></svg>